<?xml version="1.0" encoding="iso-8859-1"?>
<!-- Generator: Adobe Illustrator 19.0.0, SVG Export Plug-In . SVG Version: 6.00 Build 0)  -->
<svg version="1.1" id="Layer_1" xmlns="http://www.w3.org/2000/svg" xmlns:xlink="http://www.w3.org/1999/xlink" x="0px" y="0px"
	 viewBox="0 0 512 512" style="enable-background:new 0 0 512 512;" xml:space="preserve">
<path style="fill:#FFC033;" d="M318.333,109.048v38.961c0,11.444-9.288,20.732-20.732,20.732h-81.433
	c-11.458,0-20.732-9.288-20.732-20.732v-38.961c0-11.458,9.274-20.732,20.732-20.732h81.433
	C309.045,88.316,318.333,97.59,318.333,109.048z"/>
<path style="fill:#F9A926;" d="M318.333,109.048v38.961c0,11.444-9.288,20.732-20.732,20.732H256V88.316h41.601
	C309.045,88.316,318.333,97.59,318.333,109.048z"/>
<path style="fill:#88CC2A;" d="M408.156,201.635v158.209C408.156,443.738,339.907,512,256,512s-152.156-68.262-152.156-152.156
	V201.635c0-40.993,33.35-74.357,74.357-74.357h155.597C374.806,127.278,408.156,160.642,408.156,201.635z"/>
<path style="fill:#7FB335;" d="M408.156,201.635v158.209C408.156,443.738,339.907,512,256,512V127.278h77.799
	C374.806,127.278,408.156,160.642,408.156,201.635z"/>
<path style="fill:#FFC033;" d="M305.427,366.7c-12.01,14.332-30.475,22.915-49.424,22.998h-0.276
	c-18.921,0-38.077-8.915-49.991-23.247c-10.269-12.37-14.388-27.462-11.582-42.486c2.543-13.669,17.484-81.82,61.573-81.82h0.276
	c12.66,0.083,30.793,6.371,45.844,35.534c8.168,15.797,13.365,34.373,15.493,46.48C320.022,339.251,315.779,354.357,305.427,366.7z"
	/>
<path style="fill:#F9A926;" d="M305.427,366.7c-12.01,14.332-30.475,22.915-49.424,22.998V242.144
	c12.66,0.083,30.793,6.372,45.844,35.534c8.168,15.797,13.365,34.373,15.493,46.48C320.022,339.251,315.779,354.357,305.427,366.7z"
	/>
<path style="fill:#88CC2A;" d="M354.35,35.976v41.242c0,19.833-16.143,35.976-35.976,35.976H192.658
	c-19.847,0-35.976-16.143-35.976-35.976V35.976C156.682,16.143,172.811,0,192.658,0h125.716C338.207,0,354.35,16.143,354.35,35.976z
	"/>
<path style="fill:#7FB335;" d="M354.35,35.976v41.242c0,19.833-16.143,35.976-35.976,35.976H256V0h62.374
	C338.207,0,354.35,16.143,354.35,35.976z"/>
<g>
</g>
<g>
</g>
<g>
</g>
<g>
</g>
<g>
</g>
<g>
</g>
<g>
</g>
<g>
</g>
<g>
</g>
<g>
</g>
<g>
</g>
<g>
</g>
<g>
</g>
<g>
</g>
<g>
</g>
</svg>
