<?xml version="1.0" encoding="iso-8859-1"?>
<!-- Generator: Adobe Illustrator 19.0.0, SVG Export Plug-In . SVG Version: 6.00 Build 0)  -->
<svg version="1.1" id="Layer_1" xmlns="http://www.w3.org/2000/svg" xmlns:xlink="http://www.w3.org/1999/xlink" x="0px" y="0px"
	 viewBox="0 0 511.672 511.672" style="enable-background:new 0 0 511.672 511.672;" xml:space="preserve">
<path style="fill:#656D78;" d="M395.915,157.711c19.66-10.462,91.691-28.013,98.094-16.021
	c6.387,12.023-48.391,61.991-68.051,72.453c-19.658,10.462-42.332,6.34-50.623-9.244
	C367.027,189.285,376.24,168.173,395.915,157.711z"/>
<path style="fill:#434A54;" d="M417.386,169.734c22.33,4.935,90.38,38.757,87.46,52.029c-2.936,13.304-78.919,15.334-101.247,10.4
	c-22.33-4.934-37.352-22.923-33.541-40.162C373.867,174.763,395.057,164.8,417.386,169.734z"/>
<path style="fill:#EAC6BB;" d="M7.086,215.112c-0.101,3.591-0.164,7.214-0.164,10.837c0,154.057,122.976,285.723,202.729,285.723
	s202.738-131.666,202.738-285.723c0-3.623-0.062-7.246-0.172-10.837H7.086z"/>
<path style="fill:#656D78;" d="M412.187,223.763C412.187,100.186,321.432,0,209.465,0S6.735,100.186,6.735,223.763
	c0,0,83.47,22.392,202.729,22.392C328.724,246.154,412.187,223.763,412.187,223.763z"/>
<path style="fill:#FC6E51;" d="M387.312,347.215l-96.688,57.9l-49.29-20.986l-63.389-0.219l-49.296,21.236l-95.767-55.84
	c40.419,94.877,119.673,162.365,176.77,162.365C267.169,511.672,347.181,443.185,387.312,347.215z"/>
<g>
	<path style="fill:#434A54;" d="M241.624,426.414c0-5.871-4.771-10.649-10.657-10.649c-4.224,0-7.862,2.467-9.588,6.027h-0.008
		c0,0,0.047-0.125,0.172-0.344c-0.296,0.5-3.154,4.966-11.883,4.966c-8.737,0-11.586-4.466-11.891-4.966
		c0.125,0.219,0.172,0.344,0.172,0.344h-0.008c-1.718-3.561-5.364-6.027-9.587-6.027c-5.887,0-10.657,4.778-10.657,10.649
		c0,1.655,0.39,3.217,1.069,4.622h-0.008c2.982,6.215,12.859,16.677,30.91,16.677s27.919-10.462,30.91-16.677h-0.008
		C241.233,429.631,241.624,428.069,241.624,426.414z"/>
	<path style="fill:#434A54;" d="M156.342,309.208c0,5.871-4.771,10.649-10.657,10.649c-5.887,0-10.657-4.778-10.657-10.649
		c0-5.902,4.77-10.649,10.657-10.649C151.572,298.559,156.342,303.306,156.342,309.208z"/>
	<path style="fill:#434A54;" d="M262.939,309.208c0,5.871,4.77,10.649,10.664,10.649c5.871,0,10.65-4.778,10.65-10.649
		c0-5.902-4.779-10.649-10.65-10.649C267.708,298.559,262.939,303.306,262.939,309.208z"/>
</g>
<g>
	<path style="fill:#656D78;" d="M168.748,288.034L168.748,288.034l-63.936-10.649l0,0c-0.57-0.094-1.155-0.156-1.749-0.156
		c-5.887,0-10.657,4.778-10.657,10.649c0,5.31,3.857,9.681,8.908,10.524h-0.008l63.936,10.649h0.008
		c0.57,0.094,1.148,0.156,1.749,0.156c5.879,0,10.657-4.778,10.657-10.649C177.657,293.249,173.8,288.877,168.748,288.034z"/>
	<path style="fill:#656D78;" d="M326.882,287.878c0-5.871-4.779-10.649-10.666-10.649c-0.593,0-1.17,0.062-1.748,0.156l0,0
		l-63.936,10.649l0,0c-5.051,0.843-8.908,5.215-8.908,10.524c0,5.871,4.771,10.649,10.657,10.649c0.601,0,1.179-0.062,1.749-0.156
		l0,0l63.936-10.649l0,0C323.024,297.559,326.882,293.188,326.882,287.878z"/>
</g>
<path style="fill:#E6E9ED;" d="M273.603,117.737c0-35.321-28.637-63.928-63.943-63.928c-35.313,0-63.936,28.607-63.936,63.928
	c0,18.925,8.229,35.946,21.307,47.657v26.952h85.25v-26.952C265.358,153.683,273.603,136.662,273.603,117.737z"/>
<g>
	<path style="fill:#434A54;" d="M204.327,117.737c0,5.902-4.771,10.649-10.657,10.649c-5.879,0-10.649-4.747-10.649-10.649
		c0-5.872,4.771-10.649,10.649-10.649C199.557,107.087,204.327,111.865,204.327,117.737z"/>
	<path style="fill:#434A54;" d="M236.299,117.737c0,5.902-4.771,10.649-10.657,10.649s-10.657-4.747-10.657-10.649
		c0-5.872,4.771-10.649,10.657-10.649S236.299,111.865,236.299,117.737z"/>
</g>
<g>
	<path style="fill:#CCD1D9;" d="M199.003,181.665c-5.887,0-10.657,4.778-10.657,10.681h21.314
		C209.66,186.443,204.889,181.665,199.003,181.665z"/>
	<path style="fill:#CCD1D9;" d="M220.317,181.665c-5.887,0-10.657,4.778-10.657,10.681h21.307
		C230.966,186.443,226.196,181.665,220.317,181.665z"/>
	<path style="fill:#CCD1D9;" d="M252.281,192.314c0-5.871-4.771-10.649-10.657-10.649s-10.657,4.778-10.657,10.681h21.314V192.314z"
		/>
	<path style="fill:#CCD1D9;" d="M177.657,181.665c-5.653,0-10.259,4.404-10.626,9.962v0.718h21.275
		C188.306,186.443,183.536,181.665,177.657,181.665z"/>
</g>
<g>
</g>
<g>
</g>
<g>
</g>
<g>
</g>
<g>
</g>
<g>
</g>
<g>
</g>
<g>
</g>
<g>
</g>
<g>
</g>
<g>
</g>
<g>
</g>
<g>
</g>
<g>
</g>
<g>
</g>
</svg>
